<?xml version="1.0" encoding="UTF-8"?>
<svg version="1.1" xmlns="http://www.w3.org/2000/svg" width="24" height="24">
<path d="M0 0 C7.92 0 15.84 0 24 0 C24 7.92 24 15.84 24 24 C16.08 24 8.16 24 0 24 C0 16.08 0 8.16 0 0 Z " fill="#F44E6F" transform="translate(0,0)"/>
<path d="M0 0 C2.43375 0.020625 4.8675 0.04125 7.375 0.0625 C7.375 5.0125 7.375 9.9625 7.375 15.0625 C4.72909986 15.08934679 2.08346904 15.10926357 -0.5625 15.125 C-1.69461914 15.13756836 -1.69461914 15.13756836 -2.84960938 15.15039062 C-4.77494313 15.15902441 -6.70035581 15.11474333 -8.625 15.0625 C-9.625 14.0625 -9.625 14.0625 -9.72265625 11.12109375 C-9.71105469 9.92613281 -9.69945312 8.73117187 -9.6875 7.5 C-9.67847656 6.30246094 -9.66945313 5.10492188 -9.66015625 3.87109375 C-9.64855469 2.94425781 -9.63695312 2.01742188 -9.625 1.0625 C-6.56118406 -0.46940797 -3.35534134 -0.03993613 0 0 Z " fill="#FFF2F4" transform="translate(12.625,4.9375)"/>
<path d="M0 0 C2.8828125 -0.1171875 2.8828125 -0.1171875 6 0 C8.04040776 2.04040776 9 3.08325244 9 6 C7 7 5 8 3 9 C2.67 10.32 2.34 11.64 2 13 C6.95 13 11.9 13 17 13 C17 13.33 17 13.66 17 14 C14.35409986 14.02684679 11.70846904 14.04676357 9.0625 14.0625 C7.93038086 14.07506836 7.93038086 14.07506836 6.77539062 14.08789062 C4.85005687 14.09652441 2.92464419 14.05224333 1 14 C0 13 0 13 -0.09765625 10.05859375 C-0.08605469 8.86363281 -0.07445312 7.66867187 -0.0625 6.4375 C-0.05347656 5.23996094 -0.04445312 4.04242188 -0.03515625 2.80859375 C-0.02355469 1.88175781 -0.01195312 0.95492188 0 0 Z " fill="#F7B4C0" transform="translate(3,6)"/>
<path d="M0 0 C4.62 0 9.24 0 14 0 C14 1.65 14 3.3 14 5 C9.05 5 4.1 5 -1 5 C-0.67 3.35 -0.34 1.7 0 0 Z " fill="#E7E7E9" transform="translate(6,14)"/>
</svg>
